<svg width="900" height="340" viewBox="0 0 900 340" xmlns="http://www.w3.org/2000/svg">
  <defs>
    <linearGradient id="bgb" x1="0%" y1="0%" x2="100%" y2="100%">
      <stop offset="0%" style="stop-color:#0f172a"/>
      <stop offset="100%" style="stop-color:#020617"/>
    </linearGradient>
    <linearGradient id="gold" x1="0%" y1="0%" x2="100%" y2="0%">
      <stop offset="0%" style="stop-color:#f59e0b"/>
      <stop offset="100%" style="stop-color:#fbbf24"/>
    </linearGradient>
  </defs>

  <rect width="900" height="340" fill="url(#bgb)" rx="16"/>

  <!-- Title -->
  <text x="450" y="35" font-family="Arial, sans-serif" font-size="18" font-weight="900" fill="white" text-anchor="middle">💼 Business Opportunity</text>
  <text x="450" y="55" font-family="Arial, sans-serif" font-size="12" fill="#64748b" text-anchor="middle">63 million MSMEs in India · ₹500Cr+ compliance consulting market</text>

  <!-- Phase 1 -->
  <rect x="30" y="75" width="255" height="220" rx="14" fill="#0d1424" stroke="#3b82f625" stroke-width="1.5"/>
  <rect x="30" y="75" width="255" height="5" rx="3" fill="#3b82f6"/>
  <text x="157" y="105" font-family="Arial, sans-serif" font-size="13" font-weight="900" fill="#60a5fa" text-anchor="middle">PHASE 1</text>
  <text x="157" y="122" font-family="Arial, sans-serif" font-size="11" fill="#94a3b8" text-anchor="middle">Freemium SaaS · Month 1–6</text>

  <rect x="50" y="135" width="215" height="28" rx="8" fill="#3b82f610" stroke="#3b82f620" stroke-width="1"/>
  <text x="157" y="154" font-family="Arial, sans-serif" font-size="10" fill="#94a3b8" text-anchor="middle">🆓 Free: 10 searches/month</text>

  <rect x="50" y="170" width="215" height="28" rx="8" fill="#3b82f615" stroke="#3b82f625" stroke-width="1"/>
  <text x="157" y="189" font-family="Arial, sans-serif" font-size="10" fill="#60a5fa" text-anchor="middle">⭐ Starter: ₹999/month</text>

  <rect x="50" y="205" width="215" height="28" rx="8" fill="#3b82f620" stroke="#3b82f635" stroke-width="1"/>
  <text x="157" y="224" font-family="Arial, sans-serif" font-size="10" fill="#93c5fd" text-anchor="middle">🚀 Pro: ₹4,999/month</text>

  <rect x="50" y="248" width="215" height="32" rx="8" fill="#1e3a5f"/>
  <text x="157" y="263" font-family="Arial, sans-serif" font-size="10" font-weight="700" fill="white" text-anchor="middle">Target ARR</text>
  <text x="157" y="276" font-family="Arial, sans-serif" font-size="12" font-weight="900" fill="#60a5fa" text-anchor="middle">₹25 Lakhs</text>

  <!-- Phase 2 -->
  <rect x="322" y="75" width="255" height="220" rx="14" fill="#0d1424" stroke="#8b5cf625" stroke-width="1.5"/>
  <rect x="322" y="75" width="255" height="5" rx="3" fill="#8b5cf6"/>
  <text x="449" y="105" font-family="Arial, sans-serif" font-size="13" font-weight="900" fill="#a78bfa" text-anchor="middle">PHASE 2</text>
  <text x="449" y="122" font-family="Arial, sans-serif" font-size="11" fill="#94a3b8" text-anchor="middle">B2B Enterprise · Month 6–18</text>

  <rect x="342" y="135" width="215" height="28" rx="8" fill="#8b5cf610" stroke="#8b5cf620" stroke-width="1"/>
  <text x="449" y="154" font-family="Arial, sans-serif" font-size="10" fill="#94a3b8" text-anchor="middle">🏢 White-label for consultants</text>

  <rect x="342" y="170" width="215" height="28" rx="8" fill="#8b5cf615" stroke="#8b5cf625" stroke-width="1"/>
  <text x="449" y="189" font-family="Arial, sans-serif" font-size="10" fill="#a78bfa" text-anchor="middle">🔗 ERP integration (SAP/Tally)</text>

  <rect x="342" y="205" width="215" height="28" rx="8" fill="#8b5cf620" stroke="#8b5cf635" stroke-width="1"/>
  <text x="449" y="224" font-family="Arial, sans-serif" font-size="10" fill="#c4b5fd" text-anchor="middle">📊 ₹50K–₹2L/year per client</text>

  <rect x="342" y="248" width="215" height="32" rx="8" fill="#2d1b69"/>
  <text x="449" y="263" font-family="Arial, sans-serif" font-size="10" font-weight="700" fill="white" text-anchor="middle">Target ARR</text>
  <text x="449" y="276" font-family="Arial, sans-serif" font-size="12" font-weight="900" fill="#a78bfa" text-anchor="middle">₹2.5 Crores</text>

  <!-- Phase 3 -->
  <rect x="614" y="75" width="256" height="220" rx="14" fill="#0d1424" stroke="#f59e0b25" stroke-width="1.5"/>
  <rect x="614" y="75" width="256" height="5" rx="3" fill="url(#gold)"/>
  <text x="742" y="105" font-family="Arial, sans-serif" font-size="13" font-weight="900" fill="#fbbf24" text-anchor="middle">PHASE 3</text>
  <text x="742" y="122" font-family="Arial, sans-serif" font-size="11" fill="#94a3b8" text-anchor="middle">Platform Play · Month 18–36</text>

  <rect x="634" y="135" width="215" height="28" rx="8" fill="#f59e0b10" stroke="#f59e0b20" stroke-width="1"/>
  <text x="742" y="154" font-family="Arial, sans-serif" font-size="10" fill="#94a3b8" text-anchor="middle">🏪 MSE ↔ BIS Lab marketplace</text>

  <rect x="634" y="170" width="215" height="28" rx="8" fill="#f59e0b15" stroke="#f59e0b25" stroke-width="1"/>
  <text x="742" y="189" font-family="Arial, sans-serif" font-size="10" fill="#fbbf24" text-anchor="middle">📝 Auto-generate BIS docs</text>

  <rect x="634" y="205" width="215" height="28" rx="8" fill="#f59e0b20" stroke="#f59e0b35" stroke-width="1"/>
  <text x="742" y="224" font-family="Arial, sans-serif" font-size="10" fill="#fde68a" text-anchor="middle">🌍 Expand: ISO, ASTM, EN</text>

  <rect x="634" y="248" width="215" height="32" rx="8" fill="#451a03"/>
  <text x="742" y="263" font-family="Arial, sans-serif" font-size="10" font-weight="700" fill="white" text-anchor="middle">Target ARR</text>
  <text x="742" y="276" font-family="Arial, sans-serif" font-size="12" font-weight="900" fill="#fbbf24" text-anchor="middle">₹25 Crores</text>

  <!-- Arrows between phases -->
  <text x="305" y="190" font-family="Arial, sans-serif" font-size="20" fill="#334155" text-anchor="middle">→</text>
  <text x="597" y="190" font-family="Arial, sans-serif" font-size="20" fill="#334155" text-anchor="middle">→</text>

  <!-- Bottom tagline -->
  <text x="450" y="318" font-family="Arial, sans-serif" font-size="11" fill="#475569" text-anchor="middle">First-mover advantage · Data moat · Network effects · Government alignment</text>
</svg>
