<svg width="900" height="360" viewBox="0 0 900 360" xmlns="http://www.w3.org/2000/svg">
  <defs>
    <linearGradient id="bg" x1="0" y1="0" x2="1" y2="1">
      <stop offset="0%" stop-color="#0f172a"/>
      <stop offset="100%" stop-color="#020617"/>
    </linearGradient>
  </defs>

  <rect width="900" height="360" fill="url(#bg)" rx="14"/>

  <text x="450" y="34" font-family="Arial Black, Arial, sans-serif" font-size="17" font-weight="900" fill="white" text-anchor="middle">Key Features</text>
  <text x="450" y="52" font-family="Arial, sans-serif" font-size="11" fill="#64748b" text-anchor="middle">Everything an MSE needs for BIS compliance</text>

  <!-- Row 1 -->

  <!-- Card 1: Smart Search -->
  <rect x="20" y="66" width="200" height="120" rx="10" fill="#0d1424" stroke="#3b82f625" stroke-width="1.5"/>
  <rect x="20" y="66" width="200" height="3" rx="2" fill="#3b82f6"/>
  <text x="36" y="92" font-family="Arial, sans-serif" font-size="11" font-weight="700" fill="white">Smart Search</text>
  <text x="36" y="108" font-family="Arial, sans-serif" font-size="9" font-weight="700" fill="#60a5fa">Hybrid RAG</text>
  <text x="36" y="124" font-family="Arial, sans-serif" font-size="9" fill="#94a3b8">Type any product description.</text>
  <text x="36" y="138" font-family="Arial, sans-serif" font-size="9" fill="#94a3b8">Get top BIS standards with</text>
  <text x="36" y="152" font-family="Arial, sans-serif" font-size="9" fill="#94a3b8">relevance scores instantly.</text>
  <rect x="36" y="162" width="80" height="14" rx="7" fill="#3b82f615"/>
  <text x="76" y="173" font-family="Arial, sans-serif" font-size="8" fill="#60a5fa" text-anchor="middle">FAISS + BM25</text>

  <!-- Card 2: AI Rationale -->
  <rect x="232" y="66" width="200" height="120" rx="10" fill="#0d1424" stroke="#8b5cf625" stroke-width="1.5"/>
  <rect x="232" y="66" width="200" height="3" rx="2" fill="#8b5cf6"/>
  <text x="248" y="92" font-family="Arial, sans-serif" font-size="11" font-weight="700" fill="white">AI Rationale</text>
  <text x="248" y="108" font-family="Arial, sans-serif" font-size="9" font-weight="700" fill="#a78bfa">Gemini 2.5 Flash</text>
  <text x="248" y="124" font-family="Arial, sans-serif" font-size="9" fill="#94a3b8">Explains WHY each standard</text>
  <text x="248" y="138" font-family="Arial, sans-serif" font-size="9" fill="#94a3b8">applies to YOUR specific</text>
  <text x="248" y="152" font-family="Arial, sans-serif" font-size="9" fill="#94a3b8">product. Not generic advice.</text>
  <rect x="248" y="162" width="90" height="14" rx="7" fill="#8b5cf615"/>
  <text x="293" y="173" font-family="Arial, sans-serif" font-size="8" fill="#a78bfa" text-anchor="middle">Product-specific</text>

  <!-- Card 3: Gap Analysis -->
  <rect x="444" y="66" width="200" height="120" rx="10" fill="#0d1424" stroke="#22c55e25" stroke-width="1.5"/>
  <rect x="444" y="66" width="200" height="3" rx="2" fill="#22c55e"/>
  <text x="460" y="92" font-family="Arial, sans-serif" font-size="11" font-weight="700" fill="white">Gap Analysis</text>
  <text x="460" y="108" font-family="Arial, sans-serif" font-size="9" font-weight="700" fill="#4ade80">Risk Assessment</text>
  <text x="460" y="124" font-family="Arial, sans-serif" font-size="9" fill="#94a3b8">See what is covered and</text>
  <text x="460" y="138" font-family="Arial, sans-serif" font-size="9" fill="#94a3b8">what is missing. Risk level:</text>
  <text x="460" y="152" font-family="Arial, sans-serif" font-size="9" fill="#94a3b8">LOW / MEDIUM / HIGH</text>
  <rect x="460" y="162" width="90" height="14" rx="7" fill="#22c55e15"/>
  <text x="505" y="173" font-family="Arial, sans-serif" font-size="8" fill="#4ade80" text-anchor="middle">Advanced Mode</text>

  <!-- Card 4: Checklist -->
  <rect x="656" y="66" width="224" height="120" rx="10" fill="#0d1424" stroke="#f59e0b25" stroke-width="1.5"/>
  <rect x="656" y="66" width="224" height="3" rx="2" fill="#f59e0b"/>
  <text x="672" y="92" font-family="Arial, sans-serif" font-size="11" font-weight="700" fill="white">Smart Checklist</text>
  <text x="672" y="108" font-family="Arial, sans-serif" font-size="9" font-weight="700" fill="#fbbf24">Per Standard</text>
  <text x="672" y="124" font-family="Arial, sans-serif" font-size="9" fill="#94a3b8">Actionable steps for each</text>
  <text x="672" y="138" font-family="Arial, sans-serif" font-size="9" fill="#94a3b8">standard. Interactive boxes.</text>
  <text x="672" y="152" font-family="Arial, sans-serif" font-size="9" fill="#94a3b8">Track your progress.</text>
  <rect x="672" y="162" width="80" height="14" rx="7" fill="#f59e0b15"/>
  <text x="712" y="173" font-family="Arial, sans-serif" font-size="8" fill="#fbbf24" text-anchor="middle">Interactive</text>

  <!-- Row 2 -->

  <!-- Card 5: What-If -->
  <rect x="20" y="202" width="200" height="120" rx="10" fill="#0d1424" stroke="#06b6d425" stroke-width="1.5"/>
  <rect x="20" y="202" width="200" height="3" rx="2" fill="#06b6d4"/>
  <text x="36" y="228" font-family="Arial, sans-serif" font-size="11" font-weight="700" fill="white">What-If Simulator</text>
  <text x="36" y="244" font-family="Arial, sans-serif" font-size="9" font-weight="700" fill="#22d3ee">Dynamic Context</text>
  <text x="36" y="260" font-family="Arial, sans-serif" font-size="9" fill="#94a3b8">Change location: coastal,</text>
  <text x="36" y="274" font-family="Arial, sans-serif" font-size="9" fill="#94a3b8">seismic, urban. Change</text>
  <text x="36" y="288" font-family="Arial, sans-serif" font-size="9" fill="#94a3b8">industry type.</text>
  <rect x="36" y="298" width="130" height="14" rx="7" fill="#06b6d415"/>
  <text x="101" y="309" font-family="Arial, sans-serif" font-size="8" fill="#22d3ee" text-anchor="middle">3 Industries  4 Locations</text>

  <!-- Card 6: Report -->
  <rect x="232" y="202" width="200" height="120" rx="10" fill="#0d1424" stroke="#ec489925" stroke-width="1.5"/>
  <rect x="232" y="202" width="200" height="3" rx="2" fill="#ec4899"/>
  <text x="248" y="228" font-family="Arial, sans-serif" font-size="11" font-weight="700" fill="white">Download Report</text>
  <text x="248" y="244" font-family="Arial, sans-serif" font-size="9" font-weight="700" fill="#f472b6">One Click</text>
  <text x="248" y="260" font-family="Arial, sans-serif" font-size="9" fill="#94a3b8">Full compliance report with</text>
  <text x="248" y="274" font-family="Arial, sans-serif" font-size="9" fill="#94a3b8">standards, gap analysis,</text>
  <text x="248" y="288" font-family="Arial, sans-serif" font-size="9" fill="#94a3b8">checklists and risk summary.</text>
  <rect x="248" y="298" width="90" height="14" rx="7" fill="#ec489915"/>
  <text x="293" y="309" font-family="Arial, sans-serif" font-size="8" fill="#f472b6" text-anchor="middle">Instant Download</text>

  <!-- Card 7: Library -->
  <rect x="444" y="202" width="200" height="120" rx="10" fill="#0d1424" stroke="#a78bfa25" stroke-width="1.5"/>
  <rect x="444" y="202" width="200" height="3" rx="2" fill="#a78bfa"/>
  <text x="460" y="228" font-family="Arial, sans-serif" font-size="11" font-weight="700" fill="white">Standards Library</text>
  <text x="460" y="244" font-family="Arial, sans-serif" font-size="9" font-weight="700" fill="#c4b5fd">30+ Standards</text>
  <text x="460" y="260" font-family="Arial, sans-serif" font-size="9" fill="#94a3b8">Browse all indexed BIS</text>
  <text x="460" y="274" font-family="Arial, sans-serif" font-size="9" fill="#94a3b8">standards. Full scope, testing</text>
  <text x="460" y="288" font-family="Arial, sans-serif" font-size="9" fill="#94a3b8">methods, related standards.</text>
  <rect x="460" y="298" width="120" height="14" rx="7" fill="#a78bfa15"/>
  <text x="520" y="309" font-family="Arial, sans-serif" font-size="8" fill="#c4b5fd" text-anchor="middle">Searchable + Filterable</text>

  <!-- Card 8: Compare -->
  <rect x="656" y="202" width="224" height="120" rx="10" fill="#0d1424" stroke="#34d39925" stroke-width="1.5"/>
  <rect x="656" y="202" width="224" height="3" rx="2" fill="#34d399"/>
  <text x="672" y="228" font-family="Arial, sans-serif" font-size="11" font-weight="700" fill="white">Compare Standards</text>
  <text x="672" y="244" font-family="Arial, sans-serif" font-size="9" font-weight="700" fill="#6ee7b7">Side by Side</text>
  <text x="672" y="260" font-family="Arial, sans-serif" font-size="9" fill="#94a3b8">Compare up to 4 standards</text>
  <text x="672" y="274" font-family="Arial, sans-serif" font-size="9" fill="#94a3b8">side by side. Strength, scope,</text>
  <text x="672" y="288" font-family="Arial, sans-serif" font-size="9" fill="#94a3b8">testing, applicability.</text>
  <rect x="672" y="298" width="90" height="14" rx="7" fill="#34d39915"/>
  <text x="717" y="309" font-family="Arial, sans-serif" font-size="8" fill="#6ee7b7" text-anchor="middle">Up to 4 Standards</text>

  <!-- Bottom label -->
  <text x="450" y="346" font-family="Arial, sans-serif" font-size="10" fill="#334155" text-anchor="middle">BIS AI  |  Team Tech_Bridgers  |  Hackathon 2026</text>
</svg>
